<?xml version="1.0" encoding="iso-8859-1"?>
<!-- Generator: Adobe Illustrator 16.0.0, SVG Export Plug-In . SVG Version: 6.00 Build 0)  -->
<!DOCTYPE svg PUBLIC "-//W3C//DTD SVG 1.1//EN" "http://www.w3.org/Graphics/SVG/1.1/DTD/svg11.dtd">
<svg fill='#fff' version="1.1" id="Capa_1" xmlns="http://www.w3.org/2000/svg" xmlns:xlink="http://www.w3.org/1999/xlink" x="0px" y="0px"
	 width="478.125px" height="478.125px" viewBox="0 0 478.125 478.125" style="enable-background:new 0 0 478.125 478.125;"
	 xml:space="preserve">
<g>
	<path d="M239.062,0C107.1,0,0,107.1,0,239.062c0,131.963,107.1,239.062,239.062,239.062c131.963,0,239.062-107.1,239.062-239.062
		C478.125,107.1,371.025,0,239.062,0z M206.55,21.038c-1.912,0,7.65-1.913,15.3-1.913c5.737,0,11.475,0,17.212,0
		c80.325,0,149.175,42.075,187.425,105.188c3.825,5.737,9.562,17.212,9.562,17.212c-66.938-42.075-147.263-63.112-229.5-51.637
		C204.638,66.938,204.638,43.987,206.55,21.038z M93.712,74.587L93.712,74.587c1.913-1.913,7.65-7.65,13.388-11.475
		c21.038-15.3,43.987-26.775,68.85-34.425c5.737-1.913,13.387-3.825,11.475-3.825c-5.737,65.025,5.738,133.875,40.163,195.075
		c-19.125,32.513-42.075,59.287-68.85,80.325C107.1,233.325,86.062,153,93.712,74.587C93.712,74.587,91.8,74.587,93.712,74.587z
		 M53.55,357.638L53.55,357.638c0-1.913-7.65-13.388-11.475-21.038c-15.3-28.688-22.95-63.112-22.95-97.537
		c0-49.725,15.3-93.712,43.987-130.05c3.825-7.65,11.475-15.3,9.562-13.388c-1.912,76.5,21.038,153,70.763,218.025
		C114.75,332.775,86.062,348.075,53.55,357.638L53.55,357.638z M130.05,430.312c-21.037-13.388-42.075-28.688-57.375-47.812
		c-3.825-3.825-7.65-7.65-5.737-7.65c72.675-24.862,135.788-74.587,177.862-145.35c36.338,0,72.675,7.65,105.188,19.125
		c-38.25,93.713-118.575,160.65-208.462,185.513C143.438,437.963,135.788,434.138,130.05,430.312z M447.525,307.912L447.525,307.912
		c0,1.913-1.913,5.738-3.825,9.562C411.188,399.713,332.775,459,239.062,459c-22.95,0-45.9-3.825-66.938-9.562
		c-1.913,0-3.825-1.912-3.825-1.912l0,0l0,0c87.976-32.513,160.65-99.45,198.9-191.25
		C397.8,269.662,424.575,286.875,447.525,307.912L447.525,307.912z M453.263,288.787L453.263,288.787
		c-57.375-47.812-130.05-76.5-208.463-78.412c-17.212-32.513-30.6-66.938-36.337-101.362
		C296.438,97.538,382.5,122.4,449.438,174.038c-1.912-3.825,1.912,3.825,3.825,11.475c3.825,17.212,5.737,34.425,5.737,53.55
		c0,11.475,0,22.95-1.912,32.513C455.175,279.225,453.263,286.875,453.263,288.787L453.263,288.787z"/>
</g>
<g>
</g>
<g>
</g>
<g>
</g>
<g>
</g>
<g>
</g>
<g>
</g>
<g>
</g>
<g>
</g>
<g>
</g>
<g>
</g>
<g>
</g>
<g>
</g>
<g>
</g>
<g>
</g>
<g>
</g>
</svg>
